<svg width="67" height="35" viewBox="0 0 67 35" fill="none" xmlns="http://www.w3.org/2000/svg">
<path d="M6.66 34.66C4.74 34.66 3.14 34.18 1.86 33.22C0.62 32.22 0 30.84 0 29.08C0 27.32 0.78 25.76 2.34 24.4C3.9 23 5.72 21.74 7.8 20.62C9.36 19.74 10.92 18.98 12.48 18.34C14.04 17.7 15.38 17.16 16.5 16.72V14.8C16.5 12.6 16.08 10.96 15.24 9.87996C14.44 8.79996 12.9 8.25996 10.62 8.25996C9.54 8.25996 8.48 8.39996 7.44 8.67996C6.4 8.95996 5.88 9.47996 5.88 10.24C5.88 10.4 5.9 10.58 5.94 10.78C6.02 10.98 6.08 11.18 6.12 11.38C6.32 11.9 6.42 12.44 6.42 13C6.42 13.76 6.14 14.36 5.58 14.8C5.06 15.2 4.42 15.4 3.66 15.4C2.94 15.4 2.34 15.14 1.86 14.62C1.38 14.06 1.14 13.4 1.14 12.64C1.14 11.2 1.68 10.06 2.76 9.21996C3.88 8.33996 5.24 7.71996 6.84 7.35996C8.44 6.95996 9.98 6.75996 11.46 6.75996C14.66 6.75996 17 7.49996 18.48 8.97996C19.96 10.46 20.7 12.88 20.7 16.24V27.04C20.7 28.8 20.82 30.16 21.06 31.12C21.34 32.08 21.94 32.56 22.86 32.56C23.46 32.56 23.98 32.34 24.42 31.9C24.86 31.46 25.16 30.98 25.32 30.46L26.4 30.88C26.08 32.04 25.5 32.96 24.66 33.64C23.86 34.32 22.74 34.66 21.3 34.66C19.54 34.66 18.32 34.16 17.64 33.16C17 32.12 16.64 30.76 16.56 29.08C15.44 30.88 14.02 32.26 12.3 33.22C10.58 34.18 8.7 34.66 6.66 34.66ZM4.68 28.78C4.68 29.9 5 30.8 5.64 31.48C6.32 32.12 7.3 32.44 8.58 32.44C9.74 32.44 10.84 32.16 11.88 31.6C12.96 31.04 13.9 30.34 14.7 29.5C15.5 28.62 16.1 27.68 16.5 26.68V17.92C15.18 18.48 13.82 19.14 12.42 19.9C11.06 20.62 9.78 21.44 8.58 22.36C7.42 23.28 6.48 24.28 5.76 25.36C5.04 26.4 4.68 27.54 4.68 28.78Z" fill="black"/>
<path d="M26.2941 34.18V32.8L27.2541 32.68C28.4141 32.52 29.2941 32.34 29.8941 32.14C30.5341 31.9 30.9741 31.4 31.2141 30.64C31.4541 29.84 31.5741 28.54 31.5741 26.74V14.26C31.5741 12.7 31.3541 11.56 30.9141 10.84C30.5141 10.12 29.9141 9.67996 29.1141 9.51996C28.3141 9.31996 27.3741 9.21996 26.2941 9.21996V7.83996C27.9341 7.83996 29.5141 7.77996 31.0341 7.65996C32.5541 7.53996 34.1341 7.35996 35.7741 7.11996L35.1141 14.02H35.3541C36.2341 11.34 37.3141 9.45996 38.5941 8.37996C39.8741 7.29996 41.2541 6.75996 42.7341 6.75996C44.4141 6.75996 45.5341 7.17996 46.0941 8.01996C46.6541 8.81996 46.9341 9.59996 46.9341 10.36C46.9341 11.24 46.6741 11.96 46.1541 12.52C45.6341 13.08 44.9341 13.36 44.0541 13.36C43.2141 13.36 42.5741 13.16 42.1341 12.76C41.6941 12.36 41.4741 11.9 41.4741 11.38C41.4741 10.98 41.5141 10.6 41.5941 10.24C41.7141 9.87996 41.7741 9.59996 41.7741 9.39996C41.7741 8.99996 41.4941 8.79996 40.9341 8.79996C40.3741 8.79996 39.7741 9.05996 39.1341 9.57996C38.5341 10.1 38.0141 10.82 37.5741 11.74C37.2141 12.5 36.8741 13.34 36.5541 14.26C36.2341 15.18 35.9741 16.18 35.7741 17.26V26.74C35.7741 28.54 35.8941 29.84 36.1341 30.64C36.3741 31.4 36.7941 31.9 37.3941 32.14C38.0341 32.34 38.9341 32.52 40.0941 32.68L41.0541 32.8V34.18L33.6741 34L26.2941 34.18Z" fill="black"/>
<path d="M59.1502 34.66C57.1902 34.66 55.5902 34.08 54.3502 32.92C53.1502 31.72 52.5502 29.78 52.5502 27.1V9.33996H48.1102V7.83996L49.7302 7.71996C51.3702 7.59996 52.6102 6.93996 53.4502 5.73996C54.3302 4.49996 54.9102 2.77996 55.1902 0.579956H56.7502V7.83996H64.4302V9.33996H56.7502V27.34C56.7502 30.86 57.9902 32.62 60.4702 32.62C61.5102 32.62 62.3502 32.28 62.9902 31.6C63.6302 30.88 64.2102 30 64.7302 28.96L66.0502 29.62C65.8102 30.22 65.5102 30.78 65.1502 31.3C64.8302 31.78 64.5102 32.2 64.1902 32.56C63.5102 33.32 62.7302 33.86 61.8502 34.18C61.0102 34.5 60.1102 34.66 59.1502 34.66Z" fill="black"/>
</svg>
