<svg width="76" height="44" viewBox="0 0 76 44" fill="none" xmlns="http://www.w3.org/2000/svg">
<path d="M4.232 28.496C3.144 28.112 2.312 27.44 1.736 26.48C1.16 25.52 0.872 24.432 0.872 23.216C0.872 21.68 1.32 20.208 2.216 18.8C3.112 17.328 4.296 16.336 5.768 15.824L48.584 0.943996C49.352 0.687996 50.12 0.559996 50.888 0.559996C52.232 0.559996 53.288 1.008 54.056 1.904C54.824 2.8 55.208 3.888 55.208 5.168C55.208 6.384 54.824 7.536 54.056 8.624C53.352 9.648 52.264 10.416 50.792 10.928L17.192 22.256L47.912 33.68C49 34.064 49.832 34.672 50.408 35.504C50.984 36.336 51.272 37.232 51.272 38.192C51.272 39.664 50.728 41.008 49.64 42.224C48.616 43.376 47.304 43.952 45.704 43.952C45 43.952 44.232 43.792 43.4 43.472L4.232 28.496ZM50.6188 26.384C49.0828 26.512 47.8348 26.064 46.8748 25.04C45.9788 24.016 45.5308 22.576 45.5308 20.72C45.5308 18.992 45.9468 17.712 46.7788 16.88C47.6748 16.048 48.9548 15.568 50.6188 15.44L70.2988 13.52C71.8988 13.392 73.1148 13.808 73.9468 14.768C74.8428 15.664 75.2908 17.008 75.2908 18.8C75.2908 22.256 73.6268 24.144 70.2988 24.464L50.6188 26.384Z" fill="black"/>
</svg>
