<svg width="76" height="44" viewBox="0 0 76 44" fill="none" xmlns="http://www.w3.org/2000/svg">
<path d="M4.23201 28.4961C3.14401 28.1121 2.31201 27.4401 1.73601 26.4801C1.16001 25.5201 0.872009 24.4321 0.872009 23.2161C0.872009 21.6801 1.32001 20.2081 2.21601 18.8001C3.11201 17.3281 4.29601 16.3361 5.76801 15.8241L48.584 0.944059C49.352 0.688059 50.12 0.560059 50.888 0.560059C52.232 0.560059 53.288 1.00806 54.056 1.90406C54.824 2.80006 55.208 3.88806 55.208 5.16806C55.208 6.38406 54.824 7.53606 54.056 8.62406C53.352 9.64806 52.264 10.4161 50.792 10.9281L17.192 22.2561L47.912 33.6801C49 34.0641 49.832 34.6721 50.408 35.5041C50.984 36.3361 51.272 37.2321 51.272 38.1921C51.272 39.6641 50.728 41.0081 49.64 42.2241C48.616 43.3761 47.304 43.9521 45.704 43.9521C45 43.9521 44.232 43.7921 43.4 43.4721L4.23201 28.4961Z" fill="white"/>
<path d="M50.6188 26.3841C49.0828 26.5121 47.8348 26.0641 46.8748 25.0401C45.9788 24.0161 45.5308 22.5761 45.5308 20.7201C45.5308 18.9921 45.9468 17.7121 46.7788 16.8801C47.6748 16.0481 48.9548 15.5681 50.6188 15.4401L70.2988 13.5201C71.8988 13.3921 73.1148 13.8081 73.9468 14.7681C74.8428 15.6641 75.2908 17.0081 75.2908 18.8001C75.2908 22.2561 73.6268 24.1441 70.2988 24.4641L50.6188 26.3841Z" fill="white"/>
</svg>
