<?xml version="1.0" encoding="UTF-8"?><svg id="Layer_2" xmlns="http://www.w3.org/2000/svg" viewBox="0 0 15.44 16.52"><defs><style>.cls-1{fill:#000;stroke-width:0px;}</style></defs><g id="Layer_6"><path class="cls-1" d="M7.37,7.26V2.42C7.37,1.08,8.45,0,9.79,0h0C10.23,0,10.6.36,10.6.81v1.61c0,.45.36.81.81.81h0c.45,0,.81-.36.81-.81V.81C12.21.36,12.57,0,13.01,0h1.61C15.07,0,15.43.36,15.43.81v1.61c0,.45-.36.81-.81.81h0c-.45,0-.81.36-.81.81h0c0,.45.36.81.81.81h0c.45,0,.81.36.81.81v1.61c0,.45-.36.81-.81.81h-1.61c-.45,0-.81-.36-.81-.81h0c0-.45-.36-.81-.81-.81h0c-.45,0-.81.36-.81.81h0c0,.45-.36.81-.81.81h-1.61c-.45,0-.81-.36-.81-.81Z"/><path class="cls-1" d="M7.37,14.02h0c0-.4.33-.73.73-.73h.16c.4,0,.73-.33.73-.73v-.16c0-.4-.33-.73-.73-.73h-.16c-.4,0-.73-.33-.73-.73h0c0-1.38,1.12-2.5,2.5-2.5h0c.4,0,.73.33.73.73v.16c0,.4.33.73.73.73h.16c.4,0,.73-.33.73-.73v-.16c0-.4.33-.73.73-.73h.06c1.35,0,2.44,1.09,2.44,2.44v.06c0,.4-.33.73-.73.73h-.16c-.4,0-.73.33-.73.73v.16c0,.4.33.73.73.73h.16c.4,0,.73.33.73.73h0c0,1.38-1.12,2.5-2.5,2.5h0c-.4,0-.73-.33-.73-.73v-.16c0-.4-.33-.73-.73-.73h-.16c-.4,0-.73.33-.73.73v.16c0,.4-.33.73-.73.73h0c-1.38,0-2.5-1.12-2.5-2.5Z"/><path class="cls-1" d="M.01,14.78c0-.46,0-1.92,0-3.32,0-1.66,1.34-3,3-3h1.45c.55,0,1,.45,1,1v.85c0,.22.17.39.39.39h0c.6,0,1.08.48,1.08,1.08v3.37c0,.76-.61,1.37-1.37,1.37h-2.15c-1.25,0-2.45-.53-3.29-1.46h-.01c-.06-.09-.1-.18-.1-.28ZM5.32,14.52v-2.44c0-.22-.17-.39-.39-.39h-.8c-.22,0-.39.17-.39.39v2.44c0,.22.17.39.39.39h.8c.22,0,.39-.17.39-.39ZM3.98,9.91h-.81c-.22,0-.39.17-.39.39h0c0,.22.17.39.39.39h.81c.22,0,.39-.17.39-.39h0c0-.22-.17-.39-.39-.39Z"/><path class="cls-1" d="M0,6.25v-.99c0-1.47,1.19-2.66,2.66-2.66h0c.31,0,.57.25.57.57v.12c0,.31.25.57.57.57h0c.31,0,.57-.25.57-.57v-1.29c0-1.1.89-1.99,1.99-1.99h.03c.31,0,.57.25.57.57v6.93c0,.31-.25.57-.57.57h-3.16c-1.13,0-2.2-.48-2.95-1.32l-.11-.12C.05,6.52,0,6.39,0,6.25Z"/></g></svg>