<?xml version="1.0" encoding="UTF-8"?>
<svg id="Layer_2" data-name="Layer 2" xmlns="http://www.w3.org/2000/svg" viewBox="0 0 737.67 479.84">
  <defs>
    <style>
      .cls-1 {
        fill: none;
        stroke: #000;
        stroke-miterlimit: 10;
        stroke-width: 1.57px;
      }
    </style>
  </defs>
  <path class="cls-1" d="M316.9,21.78c0,2.41,1.95,5.19,4.36,5.19s4.36-2.78,4.36-5.19-1.95-4.36-4.36-4.36-4.36,1.95-4.36,4.36Z"/>
  <path class="cls-1" d="M339.92,16.72c0,2.79-2.26,6.26-5.06,6.26s-5.06-3.47-5.06-6.26,2.26-5.06,5.06-5.06,5.06,2.26,5.06,5.06Z"/>
  <path class="cls-1" d="M357.1,16.72c0,3.03-2.46,7.11-5.49,7.11s-5.49-4.08-5.49-7.11,2.46-5.49,5.49-5.49,5.49,2.46,5.49,5.49Z"/>
  <path class="cls-1" d="M370.83,16.29c0,3.03-2.46,9.85-5.49,9.85s-5.49-6.82-5.49-9.85,2.46-5.49,5.49-5.49,5.49,2.46,5.49,5.49Z"/>
  <path class="cls-1" d="M365.34,45.97l-10.29,2.09s-15.56-7.45-26.42-6.41c0,0,.35-4.32,11.29-6.02,0,0,7.28,2.09,14.34,0,0,0,2.01-.78,11.07-.78"/>
  <path class="cls-1" d="M342.63,61.67s-.92-15.78-23.8-13.6c0,0,4.19,14.21-10.46,29.78,0,0-5.89,10.59-22.5,0,0,0-5.23,9.81,5.75,13.47,0,0-9.55,13.42,8.76,22.71,0,0,9.86,22.1,25.95,9.81"/>
  <path class="cls-1" d="M347.22,81.7s-16.06-23.71-26.65,6.26c0,0-4.66,9.81-10.42,16.26,0,0-3.49,13.6,4.36,15.35,7.85,1.74,10.07-1.57,10.07-1.57,0,0,.04-20.5,9.58-24.41"/>
  <path class="cls-1" d="M324.57,79.36s12.62-3.09,11.12,1.95c-.57,1.92-5.27,4.52-1.8,11.95,0,0,3.2,5.32,20.09,4.27,0,0,11.36-2.4,11.36-11.27s-13.71-10.25-13.71-10.25c2.09,4.05,1.99,8.68-1.94,7.64-2.65-.71-4.94-5.94-6.15-9.26-.61-1.67-.92-3.43-.92-5.22v-7.49c.75-6.96,9.02-5.89,10-5.94.05,0,.1,0,.15,0h12.56"/>
  <path class="cls-1" d="M328.4,99.49s1.48-4.1-9.29-8.69"/>
  <path class="cls-1" d="M365.34,103.28s-10.3-1.96-15.4,7.45"/>
  <path class="cls-1" d="M365.34,121.2s-19.59-27.07-28.22,5.1c0,0-1.31,2.62,4.05,8.63,0,0,9.16-8.89,17.39-7.59,8.24,1.31,6.77.71,6.77.71"/>
  <path class="cls-1" d="M341.17,134.93s-14.67-4.36-16.6-16.94"/>
  <path class="cls-1" d="M331.14,129.29s-17.21.89-26.97,16.06c-9.77,15.17,2.79,31.56,16.22,26.51,13.43-5.06,16.63-10.23,15.62-16.5"/>
  <path class="cls-1" d="M342.63,133.66s8.99,13.55,1.12,19.89c-5.63,4.54-8.05-1.05-8.05-1.05,0,0,.03,14.3,12.24,12.9,0,0,.98-3.12,3.86-6.08,2.66-2.73,6.93-5.34,13.55-5.25"/>
  <path class="cls-1" d="M365.34,145.35s-11.96.22-13.55,13.97"/>
  <path class="cls-1" d="M342.61,86.07c.82-.11,4.83,1.69,4.6,4.13,0,0-2.97,3.29-7.95.34,0,0-1.63-4.88,3.35-4.48Z"/>
  <path class="cls-1" d="M351.21,176.73s5.85-2.17-3.28-11.32"/>
  <path class="cls-1" d="M309.37,171.36s1.13,6.19,21.15,23.2"/>
  <path class="cls-1" d="M365.34,170.06s-8.26,5.48-12.85,1.17"/>
  <path class="cls-1" d="M365.34,280.32s-14.92.52-12.37-18.05c0,0-22.43,15.17-5.75-10.46,0,0-32.23,15.52,18.12-39.93"/>
  <path class="cls-1" d="M352.49,270.99s-50.32,22.54-15.4-19.34"/>
  <path class="cls-1" d="M324.57,270.99s-22.41,12.03-20.05-4.71"/>
  <path class="cls-1" d="M289.6,250.93s.02.04.07.12c1.1,1.82,15.48,22.59,61.52-43.63,0,0,8.9-12.29-3.66-23.45-12.56-11.16-19.62,2.7-18.05,8.02s3.92,5.75,11.33,5.58"/>
  <path class="cls-1" d="M295.18,243.38s13.32,11.95,31.47-5.2"/>
  <path class="cls-1" d="M342.91,218.87c-17.06,7.27-32.64,5.7-32.64,5.7,0,0-15.77,5.01-15.07,19.21"/>
  <path class="cls-1" d="M287.75,78.98s-6.27-3.24-7.64-14.68c0,0-11.25,3.6-17.98,17.2,0,0,12.28,4.2,12.81,17.99h14.2"/>
  <path class="cls-1" d="M274.94,99.49s1.18,6.8-10.33,23.26v12.19s26.44-23.96,36.4,18.18"/>
  <path class="cls-1" d="M365.34,315.12s-13.64-4.58-12.43-15.17c0,0-11.55,3.27-10-7.32l1.54-10.59h20.88"/>
  <path class="cls-1" d="M319.11,307.92c-.68,2.94-1.92,4.7-3.06,5.74-1.29,1.19-2.43,1.45-2.43,1.45-9.38-6.06-12.94-5.1-12.94-5.1-15.69-1.05-31.39,5.1-31.39,5.1-5.23,9.29-15,6.06-15,6.06-9.07-4.88-6.63-12.56-6.63-12.56,1.4-7.32,8.72-10.05,8.72-10.05,9.77-4.82,8.22-9.48,8.22-9.48,0,0,26.96.17,54.5,7.15"/>
  <path class="cls-1" d="M322.48,330.03c.81.87,1.35,1.34,1.35,1.34,0,0,5.89,1.18,7-1.63,1.11-2.81.65-4.57.65-4.57"/>
  <path class="cls-1" d="M316.06,313.67c-.74,7.59,4,13.76,6.42,16.37"/>
  <path class="cls-1" d="M331.75,325.56s2.29,3.17,1.9,6.06c0,0,8.87,3.01,10.35-6.09"/>
  <path class="cls-1" d="M257.9,321.72s-1.74,6.71-13.95,6.01c0,0-20.47-10.47-14.71-20.41l-46.04,5.25s-16.51-5.93-22.09-12.21c-5.57-6.28-9.37,2.11-9.37,2.11,0,0-6.79-2.09-5.24,7.15"/>
  <path class="cls-1" d="M160.59,246.19s15.62,10.49-1.92,28.98c0,0-9.41-4.25-20.66-2.94-11.25,1.31-12.03,15.85-12.03,15.85"/>
  <path class="cls-1" d="M332.41,182.59s9.09-9.61,19.37-5.86"/>
  <path class="cls-1" d="M224.25,222.48s5.56,16.77,19.42,30.64c13.86,13.86,19.8,27.2,19.8,27.2,25.46,2.04,27.38,4.24,40.87,7.55,13.49,3.31,46.62,18.33,47.34,30.56.72,12.23-6.28,13.67-6.28,13.67l-1.37-6.34"/>
  <path class="cls-1" d="M243.67,253.12s-20.47,7.62-24.65,22.05c0,0-5.89-.99-10.2,6.86s0-.53,0-.53c0,0-11.77-10.59-22.89,11.25,0,0-3.27-7.32-7.85.78,0,0-11.59-9.9-16.98-21.17"/>
  <path class="cls-1" d="M101.09,407.06s15.1-6.61,7.51-10.88c0,0-6.11-1.45-5.92-1.44,0,0-8.89-.52-13.6-7.85"/>
  <path class="cls-1" d="M82.05,360.18c-8.2,14.76-11.38,26.17-11.37,25.76-1.74,6.63,5.61,6.63,5.61,6.63-2.88,8.11-.61,10.14-.61,10.14,0,0,8.63,6.63,13.51,8.63,4.88,2.01,7.89-.73,7.89-.73,0,0,4.13-2.16,4.48-4.02"/>
  <path class="cls-1" d="M126.37,285.3s12.66-8.14,20.12,23.51c0,0-9.98,10.49-34.96,46.85,0,0-8.24,7.98-16.87,0,0,0-5.75,8.24-14.26,2.48,0,0-5.36-6.93,5.1-13.6,0,0,4.21-.13,4.78,2.22.58,2.35-4.92,4.71-4.92,4.71,0,0,5.73-1.55,11.6.36.27.09.55.19.82.29,6.15,2.35,26.29-55.54,28.18-64.04"/>
  <path class="cls-1" d="M309.11,394.19c7.98,37.93,56.23,42.42,56.23,42.42,0,0-17.63-4.58-21.3-28.12"/>
  <circle class="cls-1" cx="365.29" cy="447.07" r="7.98"/>
  <circle class="cls-1" cx="341.16" cy="447.07" r="7.98"/>
  <circle class="cls-1" cx="342.72" cy="399.75" r="8.48"/>
  <circle class="cls-1" cx="317.02" cy="447.07" r="7.98"/>
  <circle class="cls-1" cx="292.89" cy="447.07" r="7.98"/>
  <circle class="cls-1" cx="268.76" cy="447.07" r="7.98"/>
  <path class="cls-1" d="M252.61,447.07c0,4.41-3.57,7.98-7.98,7.98s-13.8-3.57-13.8-7.98,9.39-7.98,13.8-7.98,7.98,3.57,7.98,7.98Z"/>
  <circle class="cls-1" cx="214.68" cy="447.07" r="7.98"/>
  <circle class="cls-1" cx="190.55" cy="447.07" r="7.98"/>
  <circle class="cls-1" cx="166.42" cy="447.07" r="7.98"/>
  <circle class="cls-1" cx="142.28" cy="447.07" r="7.98"/>
  <circle class="cls-1" cx="118.15" cy="447.07" r="7.98"/>
  <circle class="cls-1" cx="94.02" cy="447.07" r="7.98"/>
  <path class="cls-1" d="M348.06,211.87c-22.67,6.75-42.41-9.04-42.41-9.04,0,0,.79-8.3,11.97-6.61,0,0,15.87,8.31,17.06,1.86"/>
  <path class="cls-1" d="M263.96,186.74c5.26-2.68,19.29,4.82,24.14,5.91,5.51.58,5.78,7.96,5.78,7.96l12.31,7.57.45,5.36"/>
  <path class="cls-1" d="M256.89,203.87s7.69,3.45,6.77-20.29"/>
  <path class="cls-1" d="M287.87,200.02s-.86,2.61-7-.84c0,0-1.29-1.37,2.27-1.76,4.09-.92,5.08,1.24,4.73,2.59Z"/>
  <path class="cls-1" d="M255.54,203.69l-1.9,15.79s.04,8.67,11.09,7.64"/>
  <path class="cls-1" d="M267.75,233.73l-.59.95c-.51.83,6.15,5.36,7.1,5.13-1.56.37,2.72-12.06,16.65,1.06,0,0,7.55-3.07,4.48-5.78"/>
  <path class="cls-1" d="M301.85,223.89l4.78-11.06-4.78,11.06Z"/>
  <path class="cls-1" d="M302.54,223.75s-5.98.43-9.19-.22c-2.22-.45-11.34-4.29-13.02-4.63-.74-.15-1.35.28-1.92.76-3.55,3-7.99,13.02-11.56,14.8"/>
  <path class="cls-1" d="M295.99,243.78c-2.92,1.98-10.07-.39-6.31,7.27"/>
  <path class="cls-1" d="M222.66,394.94s4.37-11.49,13.26-7.31c0,0,6.12,6.8,16.69-8.63,0,0,2.5-9.16-7.98-8.63,0,0-20.49-14.12-26.24,7.32-5.75,21.45,7.06,12.6,7.06,12.6"/>
  <path class="cls-1" d="M226.43,425.5s16.15,20.73,22.17,0c0,0,17.13-7.59-.52-14.98,0,0-17.13-5.43-30.15,10.01,0,0,4.32,8.7,8.5,4.97Z"/>
  <path class="cls-1" d="M222.66,394.59s-4.85,7.32-19.76-24.59"/>
  <path class="cls-1" d="M196.09,372.88s24.95,45.45,35.89,37.51"/>
  <path class="cls-1" d="M199.93,379.48s-2.75,30.74,14.1,42.67c0,0-.65-8.27,8.62-12.56"/>
  <path class="cls-1" d="M220.54,434.31c-19.97-1.34-33.47-.51-39.27.04-.88.08-1.3-1.03-.61-1.58,18.92-15.05,1.91-26.93,1.91-26.93-3.32-9.68,5.67-15.69,5.67-15.69,0,0,2.91,25.26,23.47,43.48"/>
  <path class="cls-1" d="M196.3,373.47s-9.62,40.68,24.9,61.24"/>
  <path class="cls-1" d="M256.89,380.37l-7.11,7.94s3.92,4.98,1.05,18.58c0,0,1.06.49,7.07,4.43,6.01,3.94,15.6-15.36,9.46-25.37-3.19-5.2-10.46-5.57-10.46-5.57Z"/>
  <path class="cls-1" d="M247.37,405.9s-17.73,1.31-23.12-9.02c0,0,12.34-5.1,21.55-3.4,0,0,6.08,1.96,1.57,12.42Z"/>
  <path class="cls-1" d="M341.16,436.61s-.36.02-1.06-.04c-3.3-.28-14.19-2.31-31.2-16.33,0,0-14.54-1.41-8.03,14.47l27.44,1.91"/>
  <polygon class="cls-1" points="291.38 434.71 252.1 434.71 271.82 405.95 291.38 434.71"/>
  <path class="cls-1" d="M315.96,392.4c2.15-1.28.82-11.27.82-11.27-3.81-12.27,10.34-14.58,10.34-14.58,16.83,4.36,12.47,25.2,12.47,25.2"/>
  <path class="cls-1" d="M299.19,426.78s-14.31-1.87-13.26-12.71c0,0-20.8-15.1-4.71-20.95,0,0,4.84-6.54,7.85,1.07,0,0,10.79-13.23,20.44,0,2.17,2.98,6.45-1.2,7.3-3.08"/>
  <path class="cls-1" d="M336.56,372.87s4.39-9.26,13.72-13.01c0,0,6.54,2.27,10.46,13.69,0,0-9.55,7.43-10.7,22.07"/>
  <path class="cls-1" d="M289.6,251.65s-9.96,12.52,14.74,15.05c0,0-12.6.35-14.74,7.59,0,0,3.9,6.52,19.83.89"/>
  <path class="cls-1" d="M291.16,271.88s-11.95-.83-18.23-3.25c-4.89-1.88-10.23-5.14-13.72-10.78-7.98-12.88,12.82-9.3,12.82-9.3"/>
  <path class="cls-1" d="M289.08,246.09s-13.78-5.25-17.12,2.6c-3.34,7.85,19.99,21.53,19.99,21.53"/>
  <path class="cls-1" d="M181.17,241.45s-20.66-10.58-40.89-4.65c-20.23,5.93-20.12,29.32-54.13,12.35,0,0,29.02,4.05,56.04-18.71,0,0,4.87-14.39,44.98,9.5"/>
  <path class="cls-1" d="M220.63,224.35s-20.54-28.71-32.4-35.86c0,0-26.51-3.31-42.72-25.63,0,0,8.54,6.65,39.41,13.88,0,0,20.42,9.49,39.33,43.32"/>
  <path class="cls-1" d="M132.08,225.88s-4.02-16.99,8.89-20.65c12.91-3.66,51.1,16.15,51.1,16.15"/>
  <path class="cls-1" d="M204.26,233.62s-27.91-30.19-33.84-34.24"/>
  <path class="cls-1" d="M131.84,224.57s-15.1-25.45,8.26-27.02c23.37-1.57,31.44,2.24,31.44,2.24,0,0,16.79-9.57,38.31,24.09l3,5.3"/>
  <path class="cls-1" d="M198.04,236.28s-27.42-22.46-41.02-29.37"/>
  <path class="cls-1" d="M180.77,236.28s-13.03-17.93-47.28-25.23"/>
  <path class="cls-1" d="M138.15,206.38s12.37.87,34.54,10.5"/>
  <path class="cls-1" d="M117.13,244.42s10.76-22.41,23.84-31.24"/>
  <path class="cls-1" d="M132.28,237.71s-.45-17.22,19.33-21.49"/>
  <path class="cls-1" d="M127.04,209.15s-22.62-9.22-20.94-40.72c0,0,.97,24.32,21.47,35.81"/>
  <path class="cls-1" d="M157.68,196.77s.75-2.01,2.94-4.24c3.2-3.25,9.49-6.96,21.02-5.48"/>
  <path class="cls-1" d="M159.2,193.6c-15-9.88-29.79-12.55-29.79-12.55"/>
  <path class="cls-1" d="M129.2,181.08c8.87-1.17,16.74,0,22.9,1.77,8.54,2.45,13.77,6.02,13.77,6.02"/>
  <path class="cls-1" d="M153.46,183.26s-19.64-19.62-23.47-26.33l19.45,10.77"/>
  <path class="cls-1" d="M234.1,211.63l-44.09-43.19s-46.05-3.3-57.73-28.59c0,0,12.71,17.9,54.39,19.17"/>
  <path class="cls-1" d="M278.3,212.38s-2.13,2.26-1.78,4.74"/>
  <path class="cls-1" d="M247.37,200.8c-23.48-13.37-39.9-56.68-43.77-71.51-3.67-14.07-5.82-26.18-5.82-26.18,0,0-1.41,26.18,13.24,62.39,10.78,26.66,36.35,35.3,36.35,35.3,0,0-14.99,17.22-30.82,26.11,0,0-40.66,25.15-79.63,18.87,0,0-6.02-.52-23.93,35.31,0,0-32.12,58.25-97.87,52.07,0,0-5.75,1.03-1.4,4,4,2.72,19.74,5.02,24.06,5.03.39,0,.68-.02.87-.05,2.27-.45,40.19-6.45,71.74-31.86"/>
  <path class="cls-1" d="M157.68,153.89s-18.33-14.04-19.54-32.78c0,0,7.19,17.57,35.15,36.86"/>
  <path class="cls-1" d="M173.3,133.86s12.46,38.22,52.39,53.07"/>
  <path class="cls-1" d="M173.26,133.57s3.75,17.08,40.53,37.83"/>
  <path class="cls-1" d="M251.86,350.53s-4.45-1.02.74-8.92c5.36-8.15,11.3-5.55,22.52.85,11.22,6.41,12,6.28,27.83,28.9,0,0-6.31,2.39.78,13.05"/>
  <path class="cls-1" d="M306.14,209.85c-2.17-1.2-4.95,2.73-1.03,6.8"/>
  <path class="cls-1" d="M274.52,269.2s-27.55,3.05,12.76,11.12c0,0,8.55-.73,14.66-3.17"/>
  <path class="cls-1" d="M203.25,370.76s-3.11-21.91,24.45-24.35"/>
  <path class="cls-1" d="M131.38,393.53c3.75-5.77,19.68-14.9,35.09-14.05,0,0-3.18-1.91-22.19-5.68,0,0,10-14.06-13.47-18.98"/>
  <path class="cls-1" d="M222.8,308.04l-8.77,5.62c-8.77,5.62-14.25,24.58-13.74,26.15,0,0-1.29,10.46,2.45,16.61,0,0,.48-9.77,4.4-17.68"/>
  <path class="cls-1" d="M231.54,318.81s-3.71,12.7-19.84,19.23c-5.63,2.28-4.86,1.22-4.86,1.22,10.02-18.48,23.79-22.03,23.79-22.03"/>
  <path class="cls-1" d="M243.94,327.72s-15.03,13.98-37.09,11.54"/>
  <path class="cls-1" d="M169.95,306.66s-19.48,8.99-25.78,19.03c-3.53,5.63-5.62,12.56-3.56,20.45,0,0-2.33-37.26,20.49-45.79"/>
  <path class="cls-1" d="M173.81,309.21s-16.59,7.21-15.53,20.29c1.06,13.08-12.83,19.96-12.83,19.96,0,0,18.56,1.49,21.02-4.79s-7.53-3.88-2.53-16.06c4.99-12.19,15.07-17.68,15.07-17.68"/>
  <path class="cls-1" d="M194.39,352.86s-6.18,4.01.34,8.33c1.47.97,5.84,2.45,8.81,3.41"/>
  <path class="cls-1" d="M187.18,346.41c-3.78,11.68,1.25,19.36,9.97,15.95"/>
  <path class="cls-1" d="M297.97,388.09c-.13-.57-1.58-9.77-10.69-13.82,0,0-16.3,7.03-13.82-4.27,0,0-12.56-3.71-1.44-7.37,0,0-8.28-10.06.52-14.63,9.42-4.9,35.89,44.83,35.89,44.83"/>
  <path class="cls-1" d="M270.65,381.72s4.38,5.14,2.19,10.37c0,0,17.57-4.71,20.17-8.23s-22.36-2.14-22.36-2.14Z"/>
  <path class="cls-1" d="M251.76,350.66c6.14,8.98-7.35,9.2-7.35,9.2-23.41-22.04-11.5-22.83,8.77-18.37"/>
  <path class="cls-1" d="M251.35,350.09c.15.19.28.39.41.57"/>
  <path class="cls-1" d="M274.06,226.52s17.49,4.14,21.93,9.24"/>
  <path class="cls-1" d="M304.35,227.32c-.12-.2-1.25,0-2.49-3.43"/>
  <path class="cls-1" d="M299.58,224.24s-5.15,5.82-5.09,9.61"/>
  <path class="cls-1" d="M206.81,167.27s-19.34-38.32-23.61-41.9"/>
  <path class="cls-1" d="M183.19,125.37s12.1,8.7,21.13,20.79"/>
  <path class="cls-1" d="M200.43,188.42s-11.62-11.49-14.33-20.4"/>
  <path class="cls-1" d="M257.4,204.03s-13.28,1.46-7.62-14.57"/>
  <path class="cls-1" d="M249.78,189.46s5.3-6.68,13.96-5.24"/>
  <path class="cls-1" d="M283.14,129.29s-23.11,7.88-15.35,20.87,16.04,6.45,16.04,6.45c0,0,1.22,24.02,14.65,30.15,13.43,6.12,4.62-16.7,4.62-16.7"/>
  <path class="cls-1" d="M284.62,166.3c-.39-.09-10.77-2.62-13.82,1.31-3.05,3.92,6.37,8.82,18.37,9.51"/>
  <path class="cls-1" d="M289.6,177.93s-12.76-.81-10.45,6.09c0,0,15.01,8.66,14.31,0"/>
  <path class="cls-1" d="M302.54,282.03h36.08s-1.06,10.77-4.96,13.44c0,0-11.12-6.35-10.99-6.38s-5.62-2.38-10.33-2.77-9.81.09-9.8-4.29Z"/>
  <path class="cls-1" d="M109.93,311.09c-1.14,1.51,8.95-3.81,12.89-12.58"/>
  <path class="cls-1" d="M98.98,403.54c.89.25,2.94,3.35,1.65,4.23"/>
  <path class="cls-1" d="M89.26,387.17s-1.38-22.67,12.75-27.7"/>
  <path class="cls-1" d="M116.73,412.67s-9.68,19.97-30.74,19.92c-7.91-.02-5.42-11.9-5.42-11.9,0,0,1.83-1.96,6.71-3.23s4.88,5.97,4.88,6.15c0,0,8.22-9.25,24.89-11.07"/>
  <path class="cls-1" d="M172.93,387.93c-3.84,1.59-18.71,8.27-24.12,16.18,0,0-5.89-4.93-11.51-.57,0,0,5.39-18.14,35.38-16.99.77.03.96,1.08.25,1.38Z"/>
  <path class="cls-1" d="M201.09,363.64s-9.53-31.15-23.79-36.26c0,0,3.4,4.84-2.62,7.19-6.02,2.35-3.14-7.19-3.14-7.19"/>
  <path class="cls-1" d="M164.94,326.37s.2,3.43,11.32,0"/>
  <path class="cls-1" d="M201.26,335.49s-6.43-9.29-3.42-14.52c3.01-5.23,8.43-5.24,13.17-4.71"/>
  <path class="cls-1" d="M185.81,350.92s-8.51-6.01-2.23-11.38"/>
  <path class="cls-1" d="M185.76,334.31s-7.8,15.17-8.84,0"/>
  <path class="cls-1" d="M211.01,309.25s-8.15-3.98-8.91-7.69"/>
  <path class="cls-1" d="M224.87,307.76s-6.46-5.72-7.35-9.73"/>
  <path class="cls-1" d="M90.39,349.46s12.21-13.77,13.6-20.04c0,0,.47-8.55,4.12-17.32"/>
  <path class="cls-1" d="M98.98,429.82s-5.45,7.68,11.75,2.78c17.2-4.9,4.73-17.71,4.73-17.71"/>
  <path class="cls-1" d="M123.23,434.71c.12-.39,9.4-18.09,18.42-20.97,0,0,3.11,9.18,3.1,15.74,0,2.49-2.56,5.19-4.69,3.89-3.52-2.13-10.42-4.18-16.3,1.34"/>
  <path class="cls-1" d="M152.35,424.56s20.53-3.43,23.54.89c3.01,4.32-5.75,3.21-5.75,3.21-2.06,6.84-29.9,2.19-17.79-4.09Z"/>
  <path class="cls-1" d="M171.44,398.4s-22.61,9.5-22.74,13.66c-.13,4.16,6.34,2.56,16.24,3.34,9.9.78,8.43,4.81,8.43,4.81,0,0,8.18,2.91,7.96-4.03-.21-6.93-9.22-10.16-6.94-13.58,2.28-3.42,1.85-4.22,4.61-6.5,2.77-2.28-7.56,2.29-7.56,2.29Z"/>
  <line class="cls-1" x1="271.08" y1="315.12" x2="313.62" y2="315.12"/>
  <line class="cls-1" x1="350.47" y1="315.12" x2="365.09" y2="315.12"/>
  <line class="cls-1" x1="348.37" y1="330.32" x2="364.96" y2="330.32"/>
  <line class="cls-1" x1="341.75" y1="330.32" x2="345.03" y2="330.32"/>
  <line class="cls-1" x1="330.49" y1="330.32" x2="333.66" y2="330.32"/>
  <line class="cls-1" x1="240.61" y1="330.32" x2="322.95" y2="330.32"/>
  <path class="cls-1" d="M263.59,347.35s-9.72,4.33-7.85,13.79c0,0,4.93,2.08,7.85-3.24s0-10.55,0-10.55Z"/>
  <path class="cls-1" d="M131.79,354.48s-5.74,28.35-.65,39.42"/>
  <path class="cls-1" d="M127.02,356.18s-7.16,20.86-1.32,38.19c0,0-8.36-4.77-16.7-4.51-8.34.26-9.09,1.18-9.09,1.18,0,0-4.15-7.85,6.58-12.69,0,0-7.02-20.93,20.07-22.17"/>
  <path class="cls-1" d="M124.25,402.13s2.03,3.4,2.77,5.41,6.23-4,6.23-4c0,0-1.11-6.07-4.41-4.37s-4.59,2.96-4.59,2.96Z"/>
  <path class="cls-1" d="M125.69,396.55c-.55,2.63-7.14-.38-7.14-.38,3.2,6.75-10.72,11.82-10.72,11.82,7.91-2.68,12.75,3.19,12.75,3.19,0,0,4.38,7.58,3.2,11.38s3.99-7.38,10.4-10.03c0,0-4.48-6.31,7.46-6.11"/>
  <path class="cls-1" d="M213.89,156.87s4.94-8.31-1.93-27.58c-.17-.48.68-.67.9-.22,2.23,4.56,11.82,20.08,9.52,43.72"/>
  <path class="cls-1" d="M189.7,168.41s5.43.52,6.77.29"/>
  <path class="cls-1" d="M150.13,319.1s-7.33,30.58-11.01,33.76c-3.68,3.19,9.68,1.17,13.47-.66,3.79-1.83,4.84-2.75,4.84-2.75"/>
  <path class="cls-1" d="M224.4,176.65s10.56,5.7,29.24,9.51"/>
  <path class="cls-1" d="M234.28,189.77s9.45,1.98,14.76,2.29"/>
  <line class="cls-1" x1="195" y1="159.5" x2="202.99" y2="159.81"/>
  <path class="cls-1" d="M223.15,163.69s35.48,4.58,48.82,16.67c0,0,2.37,1.66,6.9,9.1"/>
  <path class="cls-1" d="M413.67,21.78c0,2.41-1.95,5.19-4.36,5.19s-4.36-2.78-4.36-5.19,1.95-4.36,4.36-4.36,4.36,1.95,4.36,4.36Z"/>
  <path class="cls-1" d="M390.65,16.72c0,2.79,2.26,6.26,5.06,6.26s5.06-3.47,5.06-6.26-2.26-5.06-5.06-5.06-5.06,2.26-5.06,5.06Z"/>
  <path class="cls-1" d="M373.47,16.72c0,3.03,2.46,7.11,5.49,7.11s5.49-4.08,5.49-7.11c0-3.03-2.46-5.49-5.49-5.49s-5.49,2.46-5.49,5.49Z"/>
  <path class="cls-1" d="M359.74,16.29c0,3.03,2.46,9.85,5.49,9.85s5.49-6.82,5.49-9.85c0-3.03-2.46-5.49-5.49-5.49s-5.49,2.46-5.49,5.49Z"/>
  <path class="cls-1" d="M365.23,45.97l10.29,2.09s15.56-7.45,26.42-6.41c0,0-.35-4.32-11.29-6.02,0,0-7.28,2.09-14.34,0,0,0-2.01-.78-11.07-.78"/>
  <path class="cls-1" d="M387.95,61.67s.92-15.78,23.8-13.6c0,0-4.19,14.21,10.46,29.78,0,0,5.89,10.59,22.5,0,0,0,5.23,9.81-5.75,13.47,0,0,9.55,13.42-8.76,22.71,0,0-9.86,22.1-25.95,9.81"/>
  <path class="cls-1" d="M383.35,81.7s16.06-23.71,26.65,6.26c0,0,4.66,9.81,10.42,16.26,0,0,3.49,13.6-4.36,15.35s-10.07-1.57-10.07-1.57c0,0-.04-20.5-9.58-24.41"/>
  <path class="cls-1" d="M406,79.36s-12.62-3.09-11.12,1.95c.57,1.92,5.27,4.52,1.8,11.95,0,0-3.2,5.32-20.09,4.27,0,0-11.36-2.4-11.36-11.27,0-8.64,13.71-10.25,13.71-10.25-2.09,4.05-1.99,8.68,1.94,7.64,2.65-.71,4.94-5.94,6.15-9.26.61-1.67.92-3.43.92-5.22v-7.49c-.75-6.96-9.02-5.89-10-5.94-.05,0-.1,0-.15,0h-12.56"/>
  <path class="cls-1" d="M402.17,99.49s-1.48-4.1,9.29-8.69"/>
  <path class="cls-1" d="M365.23,103.28s10.3-1.96,15.4,7.45"/>
  <path class="cls-1" d="M365.23,121.2s19.59-27.07,28.22,5.1c0,0,1.31,2.62-4.05,8.63,0,0-9.16-8.89-17.39-7.59-8.24,1.31-6.77.71-6.77.71"/>
  <path class="cls-1" d="M389.4,134.93s14.67-4.36,16.6-16.94"/>
  <path class="cls-1" d="M399.44,129.29s17.21.89,26.97,16.06c9.77,15.17-2.79,31.56-16.22,26.51-13.43-5.06-16.63-10.23-15.62-16.5"/>
  <path class="cls-1" d="M387.95,133.66s-8.99,13.55-1.12,19.89c5.63,4.54,8.05-1.05,8.05-1.05,0,0-.03,14.3-12.24,12.9,0,0-.98-3.12-3.86-6.08-2.66-2.73-6.93-5.34-13.55-5.25"/>
  <path class="cls-1" d="M365.23,145.35s11.96.22,13.55,13.97"/>
  <path class="cls-1" d="M387.96,86.07c-.82-.11-4.83,1.69-4.6,4.13,0,0,2.97,3.29,7.95.34,0,0,1.63-4.88-3.35-4.48Z"/>
  <path class="cls-1" d="M379.36,176.73s-5.85-2.17,3.28-11.32"/>
  <path class="cls-1" d="M421.2,171.36s-1.13,6.19-21.15,23.2"/>
  <path class="cls-1" d="M365.23,170.06s8.26,5.48,12.85,1.17"/>
  <path class="cls-1" d="M365.23,280.32s14.92.52,12.37-18.05c0,0,22.43,15.17,5.75-10.46,0,0,32.23,15.52-18.12-39.93"/>
  <path class="cls-1" d="M378.09,270.99s50.32,22.54,15.4-19.34"/>
  <path class="cls-1" d="M406,270.99s22.41,12.03,20.05-4.71"/>
  <path class="cls-1" d="M440.97,250.93s-.02.04-.07.12c-1.1,1.82-15.48,22.59-61.52-43.63,0,0-8.9-12.29,3.66-23.45,12.56-11.16,19.62,2.7,18.05,8.02-1.57,5.32-3.92,5.75-11.33,5.58"/>
  <path class="cls-1" d="M435.39,243.38s-13.32,11.95-31.47-5.2"/>
  <path class="cls-1" d="M387.66,218.87c17.06,7.27,32.64,5.7,32.64,5.7,0,0,15.77,5.01,15.07,19.21"/>
  <path class="cls-1" d="M442.82,78.98s6.27-3.24,7.64-14.68c0,0,11.25,3.6,17.98,17.2,0,0-12.28,4.2-12.81,17.99h-14.2"/>
  <path class="cls-1" d="M455.64,99.49s-1.18,6.8,10.33,23.26v12.19s-26.44-23.96-36.4,18.18"/>
  <path class="cls-1" d="M365.23,315.12s13.64-4.58,12.43-15.17c0,0,11.55,3.27,10-7.32l-1.54-10.59h-20.88"/>
  <path class="cls-1" d="M411.46,307.92c.68,2.94,1.92,4.7,3.06,5.74,1.29,1.19,2.43,1.45,2.43,1.45,9.38-6.06,12.94-5.1,12.94-5.1,15.69-1.05,31.39,5.1,31.39,5.1,5.23,9.29,15,6.06,15,6.06,9.07-4.88,6.63-12.56,6.63-12.56-1.4-7.32-8.72-10.05-8.72-10.05-9.77-4.82-8.22-9.48-8.22-9.48,0,0-26.96.17-54.5,7.15"/>
  <path class="cls-1" d="M408.09,330.03c-.81.87-1.35,1.34-1.35,1.34,0,0-5.89,1.18-7-1.63s-.65-4.57-.65-4.57"/>
  <path class="cls-1" d="M414.52,313.67c.74,7.59-4,13.76-6.42,16.37"/>
  <path class="cls-1" d="M398.83,325.56s-2.29,3.17-1.9,6.06c0,0-8.87,3.01-10.35-6.09"/>
  <path class="cls-1" d="M472.68,321.72s1.74,6.71,13.95,6.01c0,0,20.47-10.47,14.71-20.41l46.04,5.25s16.51-5.93,22.09-12.21c5.57-6.28,9.37,2.11,9.37,2.11,0,0,6.79-2.09,5.24,7.15"/>
  <path class="cls-1" d="M569.98,246.19s-15.62,10.49,1.92,28.98c0,0,9.41-4.25,20.66-2.94s12.03,15.85,12.03,15.85"/>
  <path class="cls-1" d="M398.16,182.59s-9.09-9.61-19.37-5.86"/>
  <path class="cls-1" d="M506.32,222.48s-5.56,16.77-19.42,30.64c-13.86,13.86-19.8,27.2-19.8,27.2-25.46,2.04-27.38,4.24-40.87,7.55-13.49,3.31-46.62,18.33-47.34,30.56-.72,12.23,6.28,13.67,6.28,13.67l1.37-6.34"/>
  <path class="cls-1" d="M486.9,253.12s20.47,7.62,24.65,22.05c0,0,5.89-.99,10.2,6.86,4.32,7.84,0-.53,0-.53,0,0,11.77-10.59,22.89,11.25,0,0,3.27-7.32,7.85.78,0,0,11.59-9.9,16.98-21.17"/>
  <path class="cls-1" d="M629.49,407.06s-15.1-6.61-7.51-10.88c0,0,6.11-1.45,5.92-1.44,0,0,8.89-.52,13.6-7.85"/>
  <path class="cls-1" d="M648.53,360.18c8.2,14.76,11.38,26.17,11.37,25.76,1.74,6.63-5.61,6.63-5.61,6.63,2.88,8.11.61,10.14.61,10.14,0,0-8.63,6.63-13.51,8.63-4.88,2.01-7.89-.73-7.89-.73,0,0-4.13-2.16-4.48-4.02"/>
  <path class="cls-1" d="M604.2,285.3s-12.66-8.14-20.12,23.51c0,0,9.98,10.49,34.96,46.85,0,0,8.24,7.98,16.87,0,0,0,5.75,8.24,14.26,2.48,0,0,5.36-6.93-5.1-13.6,0,0-4.21-.13-4.78,2.22-.58,2.35,4.92,4.71,4.92,4.71,0,0-5.73-1.55-11.6.36-.27.09-.55.19-.82.29-6.15,2.35-26.29-55.54-28.18-64.04"/>
  <path class="cls-1" d="M421.46,394.19c-7.98,37.93-56.23,42.42-56.23,42.42,0,0,17.63-4.58,21.3-28.12"/>
  <circle class="cls-1" cx="365.29" cy="447.07" r="7.98"/>
  <circle class="cls-1" cx="389.42" cy="447.07" r="7.98"/>
  <circle class="cls-1" cx="387.85" cy="399.75" r="8.48"/>
  <circle class="cls-1" cx="413.55" cy="447.07" r="7.98"/>
  <circle class="cls-1" cx="437.68" cy="447.07" r="7.98"/>
  <circle class="cls-1" cx="461.81" cy="447.07" r="7.98"/>
  <path class="cls-1" d="M477.96,447.07c0,4.41,3.57,7.98,7.98,7.98,4.41,0,13.8-3.57,13.8-7.98,0-4.41-9.39-7.98-13.8-7.98-4.41,0-7.98,3.57-7.98,7.98Z"/>
  <circle class="cls-1" cx="515.89" cy="447.07" r="7.98"/>
  <circle class="cls-1" cx="540.03" cy="447.07" r="7.98"/>
  <circle class="cls-1" cx="564.16" cy="447.07" r="7.98"/>
  <circle class="cls-1" cx="588.29" cy="447.07" r="7.98"/>
  <circle class="cls-1" cx="612.42" cy="447.07" r="7.98"/>
  <circle class="cls-1" cx="636.55" cy="447.07" r="7.98"/>
  <path class="cls-1" d="M382.51,211.87c22.67,6.75,42.41-9.04,42.41-9.04,0,0-.79-8.3-11.97-6.61,0,0-15.87,8.31-17.06,1.86"/>
  <path class="cls-1" d="M466.61,186.74c-5.26-2.68-19.29,4.82-24.14,5.91-5.51.58-5.78,7.96-5.78,7.96l-12.31,7.57-.45,5.36"/>
  <path class="cls-1" d="M473.68,203.87s-7.69,3.45-6.77-20.29"/>
  <path class="cls-1" d="M442.71,200.02s.86,2.61,7-.84c0,0,1.29-1.37-2.27-1.76-4.09-.92-5.08,1.24-4.73,2.59Z"/>
  <path class="cls-1" d="M475.03,203.69l1.9,15.79s-.04,8.67-11.09,7.64"/>
  <path class="cls-1" d="M462.82,233.73l.59.95c.51.83-6.15,5.36-7.1,5.13,1.56.37-2.72-12.06-16.65,1.06,0,0-7.55-3.07-4.48-5.78"/>
  <path class="cls-1" d="M428.72,223.89l-4.78-11.06,4.78,11.06Z"/>
  <path class="cls-1" d="M428.03,223.75s5.98.43,9.19-.22c2.22-.45,11.34-4.29,13.02-4.63.74-.15,1.35.28,1.92.76,3.55,3,7.99,13.02,11.56,14.8"/>
  <path class="cls-1" d="M434.58,243.78c2.92,1.98,10.07-.39,6.31,7.27"/>
  <path class="cls-1" d="M507.92,394.94s-4.37-11.49-13.26-7.31c0,0-6.12,6.8-16.69-8.63,0,0-2.5-9.16,7.98-8.63,0,0,20.49-14.12,26.24,7.32,5.75,21.45-7.06,12.6-7.06,12.6"/>
  <path class="cls-1" d="M504.14,425.5s-16.15,20.73-22.17,0c0,0-17.13-7.59.52-14.98,0,0,17.13-5.43,30.15,10.01,0,0-4.32,8.7-8.5,4.97Z"/>
  <path class="cls-1" d="M507.92,394.59s4.85,7.32,19.76-24.59"/>
  <path class="cls-1" d="M534.48,372.88s-24.95,45.45-35.89,37.51"/>
  <path class="cls-1" d="M530.64,379.48s2.75,30.74-14.1,42.67c0,0,.65-8.27-8.62-12.56"/>
  <path class="cls-1" d="M510.03,434.31c19.97-1.34,33.47-.51,39.27.04.88.08,1.3-1.03.61-1.58-18.92-15.05-1.91-26.93-1.91-26.93,3.32-9.68-5.67-15.69-5.67-15.69,0,0-2.91,25.26-23.47,43.48"/>
  <path class="cls-1" d="M534.27,373.47s9.62,40.68-24.9,61.24"/>
  <path class="cls-1" d="M473.68,380.37l7.11,7.94s-3.92,4.98-1.05,18.58c0,0-1.06.49-7.07,4.43-6.01,3.94-15.6-15.36-9.46-25.37,3.19-5.2,10.46-5.57,10.46-5.57Z"/>
  <path class="cls-1" d="M483.2,405.9s17.73,1.31,23.12-9.02c0,0-12.34-5.1-21.55-3.4,0,0-6.08,1.96-1.57,12.42Z"/>
  <path class="cls-1" d="M389.42,436.61s.36.02,1.06-.04c3.3-.28,14.19-2.31,31.2-16.33,0,0,14.54-1.41,8.03,14.47l-27.44,1.91"/>
  <polygon class="cls-1" points="439.19 434.71 478.47 434.71 458.75 405.95 439.19 434.71"/>
  <path class="cls-1" d="M414.62,392.4c-2.15-1.28-.82-11.27-.82-11.27,3.81-12.27-10.34-14.58-10.34-14.58-16.83,4.36-12.47,25.2-12.47,25.2"/>
  <path class="cls-1" d="M431.38,426.78s14.31-1.87,13.26-12.71c0,0,20.8-15.1,4.71-20.95,0,0-4.84-6.54-7.85,1.07,0,0-10.79-13.23-20.44,0-2.17,2.98-6.45-1.2-7.3-3.08"/>
  <path class="cls-1" d="M394.02,372.87s-4.39-9.26-13.72-13.01c0,0-6.54,2.27-10.46,13.69,0,0,9.55,7.43,10.7,22.07"/>
  <path class="cls-1" d="M440.97,251.65s9.96,12.52-14.74,15.05c0,0,12.6.35,14.74,7.59,0,0-3.9,6.52-19.83.89"/>
  <path class="cls-1" d="M439.41,271.88s11.95-.83,18.23-3.25c4.89-1.88,10.23-5.14,13.72-10.78,7.98-12.88-12.82-9.3-12.82-9.3"/>
  <path class="cls-1" d="M441.5,246.09s13.78-5.25,17.12,2.6c3.34,7.85-19.99,21.53-19.99,21.53"/>
  <path class="cls-1" d="M549.41,241.45s20.66-10.58,40.89-4.65c20.23,5.93,20.12,29.32,54.13,12.35,0,0-29.02,4.05-56.04-18.71,0,0-4.87-14.39-44.98,9.5"/>
  <path class="cls-1" d="M509.95,224.35s20.54-28.71,32.4-35.86c0,0,26.51-3.31,42.72-25.63,0,0-8.54,6.65-39.41,13.88,0,0-20.42,9.49-39.33,43.32"/>
  <path class="cls-1" d="M598.49,225.88s4.02-16.99-8.89-20.65c-12.91-3.66-51.1,16.15-51.1,16.15"/>
  <path class="cls-1" d="M526.31,233.62s27.91-30.19,33.84-34.24"/>
  <path class="cls-1" d="M598.73,224.57s15.1-25.45-8.26-27.02-31.44,2.24-31.44,2.24c0,0-16.79-9.57-38.31,24.09l-3,5.3"/>
  <path class="cls-1" d="M532.54,236.28s27.42-22.46,41.02-29.37"/>
  <path class="cls-1" d="M549.8,236.28s13.03-17.93,47.28-25.23"/>
  <path class="cls-1" d="M592.43,206.38s-12.37.87-34.54,10.5"/>
  <path class="cls-1" d="M613.44,244.42s-10.76-22.41-23.84-31.24"/>
  <path class="cls-1" d="M598.29,237.71s.45-17.22-19.33-21.49"/>
  <path class="cls-1" d="M603.53,209.15s22.62-9.22,20.94-40.72c0,0-.97,24.32-21.47,35.81"/>
  <path class="cls-1" d="M572.89,196.77s-.75-2.01-2.94-4.24c-3.2-3.25-9.49-6.96-21.02-5.48"/>
  <path class="cls-1" d="M571.38,193.6c15-9.88,29.79-12.55,29.79-12.55"/>
  <path class="cls-1" d="M601.37,181.08c-8.87-1.17-16.74,0-22.9,1.77-8.54,2.45-13.77,6.02-13.77,6.02"/>
  <path class="cls-1" d="M577.11,183.26s19.64-19.62,23.47-26.33l-19.45,10.77"/>
  <path class="cls-1" d="M496.47,211.63l44.09-43.19s46.05-3.3,57.73-28.59c0,0-12.71,17.9-54.39,19.17"/>
  <path class="cls-1" d="M452.21,212.38s1.51,1.97,1.16,4.46"/>
  <path class="cls-1" d="M483.2,200.8c23.48-13.37,39.9-56.68,43.77-71.51,3.67-14.07,5.82-26.18,5.82-26.18,0,0,1.41,26.18-13.24,62.39-10.78,26.66-36.35,35.3-36.35,35.3,0,0,14.99,17.22,30.82,26.11,0,0,40.66,25.15,79.63,18.87,0,0,6.02-.52,23.93,35.31,0,0,32.12,58.25,97.87,52.07,0,0,5.75,1.03,1.4,4-4,2.72-19.74,5.02-24.06,5.03-.39,0-.68-.02-.87-.05-2.27-.45-40.19-6.45-71.74-31.86"/>
  <path class="cls-1" d="M572.89,153.89s18.33-14.04,19.54-32.78c0,0-7.19,17.57-35.15,36.86"/>
  <path class="cls-1" d="M557.28,133.86s-12.46,38.22-52.39,53.07"/>
  <path class="cls-1" d="M557.32,133.57s-3.75,17.08-40.53,37.83"/>
  <path class="cls-1" d="M478.72,350.53s4.45-1.02-.74-8.92-11.3-5.55-22.52.85c-11.22,6.41-12,6.28-27.83,28.9,0,0,6.31,2.39-.78,13.05"/>
  <path class="cls-1" d="M424.43,209.85c2.17-1.2,4.95,2.73,1.03,6.8"/>
  <path class="cls-1" d="M456.05,269.2s27.55,3.05-12.76,11.12c0,0-8.55-.73-14.66-3.17"/>
  <path class="cls-1" d="M527.33,370.76s3.11-21.91-24.45-24.35"/>
  <path class="cls-1" d="M599.2,393.53c-3.75-5.77-19.68-14.9-35.09-14.05,0,0,3.18-1.91,22.19-5.68,0,0-10-14.06,13.47-18.98"/>
  <path class="cls-1" d="M507.77,308.04l8.77,5.62c8.77,5.62,14.25,24.58,13.74,26.15,0,0,1.29,10.46-2.45,16.61,0,0-.48-9.77-4.4-17.68"/>
  <path class="cls-1" d="M499.03,318.81s3.71,12.7,19.84,19.23c5.63,2.28,4.86,1.22,4.86,1.22-10.02-18.48-23.79-22.03-23.79-22.03"/>
  <path class="cls-1" d="M486.63,327.72s15.03,13.98,37.09,11.54"/>
  <path class="cls-1" d="M560.62,306.66s19.48,8.99,25.78,19.03c3.53,5.63,5.62,12.56,3.56,20.45,0,0,2.33-37.26-20.49-45.79"/>
  <path class="cls-1" d="M556.76,309.21s16.59,7.21,15.53,20.29c-1.06,13.08,12.83,19.96,12.83,19.96,0,0-18.56,1.49-21.02-4.79s7.53-3.88,2.53-16.06c-4.99-12.19-15.07-17.68-15.07-17.68"/>
  <path class="cls-1" d="M536.19,352.86s6.18,4.01-.34,8.33c-1.47.97-5.84,2.45-8.81,3.41"/>
  <path class="cls-1" d="M543.39,346.41c3.78,11.68-1.25,19.36-9.97,15.95"/>
  <path class="cls-1" d="M432.6,388.09c.13-.57,1.58-9.77,10.69-13.82,0,0,16.3,7.03,13.82-4.27,0,0,12.56-3.71,1.44-7.37,0,0,8.28-10.06-.52-14.63-9.42-4.9-35.89,44.83-35.89,44.83"/>
  <path class="cls-1" d="M459.92,381.72s-4.38,5.14-2.19,10.37c0,0-17.57-4.71-20.17-8.23s22.36-2.14,22.36-2.14Z"/>
  <path class="cls-1" d="M478.81,350.66c-6.14,8.98,7.35,9.2,7.35,9.2,23.41-22.04,11.5-22.83-8.77-18.37"/>
  <path class="cls-1" d="M479.22,350.09c-.15.19-.28.39-.41.57"/>
  <path class="cls-1" d="M456.51,226.52s-17.49,4.14-21.93,9.24"/>
  <path class="cls-1" d="M426.23,227.32c.12-.2,1.25,0,2.49-3.43"/>
  <path class="cls-1" d="M430.99,224.24s5.15,5.82,5.09,9.61"/>
  <path class="cls-1" d="M523.77,167.27s19.34-38.32,23.61-41.9"/>
  <path class="cls-1" d="M547.38,125.37s-12.1,8.7-21.13,20.79"/>
  <path class="cls-1" d="M530.14,188.42s11.62-11.49,14.33-20.4"/>
  <path class="cls-1" d="M473.17,204.03s13.28,1.46,7.62-14.57"/>
  <path class="cls-1" d="M480.79,189.46s-5.3-6.68-13.96-5.24"/>
  <path class="cls-1" d="M447.44,129.29s23.11,7.88,15.35,20.87c-7.76,12.99-16.04,6.45-16.04,6.45,0,0-1.22,24.02-14.65,30.15-13.43,6.12-4.62-16.7-4.62-16.7"/>
  <path class="cls-1" d="M445.95,166.3c.39-.09,10.77-2.62,13.82,1.31,3.05,3.92-6.37,8.82-18.37,9.51"/>
  <path class="cls-1" d="M440.97,177.93s12.76-.81,10.45,6.09c0,0-15.01,8.66-14.31,0"/>
  <path class="cls-1" d="M428.03,282.03h-36.08s1.06,10.77,4.96,13.44c0,0,11.12-6.35,10.99-6.38s5.62-2.38,10.33-2.77,9.81.09,9.8-4.29Z"/>
  <path class="cls-1" d="M620.65,311.09c1.14,1.51-8.95-3.81-12.89-12.58"/>
  <path class="cls-1" d="M631.59,403.54c-.89.25-2.94,3.35-1.65,4.23"/>
  <path class="cls-1" d="M641.31,387.17s1.38-22.67-12.75-27.7"/>
  <path class="cls-1" d="M613.85,412.67s9.68,19.97,30.74,19.92c7.91-.02,5.42-11.9,5.42-11.9,0,0-1.83-1.96-6.71-3.23-4.88-1.26-4.88,5.97-4.88,6.15,0,0-8.22-9.25-24.89-11.07"/>
  <path class="cls-1" d="M557.64,387.93c3.84,1.59,18.71,8.27,24.12,16.18,0,0,5.89-4.93,11.51-.57,0,0-5.39-18.14-35.38-16.99-.77.03-.96,1.08-.25,1.38Z"/>
  <path class="cls-1" d="M529.48,363.64s9.53-31.15,23.79-36.26c0,0-3.4,4.84,2.62,7.19,6.02,2.35,3.14-7.19,3.14-7.19"/>
  <path class="cls-1" d="M565.63,326.37s-.2,3.43-11.32,0"/>
  <path class="cls-1" d="M529.31,335.49s6.43-9.29,3.42-14.52c-3.01-5.23-8.43-5.24-13.17-4.71"/>
  <path class="cls-1" d="M544.76,350.92s8.51-6.01,2.23-11.38"/>
  <path class="cls-1" d="M544.82,334.31s7.8,15.17,8.84,0"/>
  <path class="cls-1" d="M519.56,309.25s8.15-3.98,8.91-7.69"/>
  <path class="cls-1" d="M505.7,307.76s6.46-5.72,7.35-9.73"/>
  <path class="cls-1" d="M640.18,349.46s-12.21-13.77-13.6-20.04c0,0-.47-8.55-4.12-17.32"/>
  <path class="cls-1" d="M631.59,429.82s5.45,7.68-11.75,2.78-4.73-17.71-4.73-17.71"/>
  <path class="cls-1" d="M607.34,434.71c-.12-.39-9.4-18.09-18.42-20.97,0,0-3.11,9.18-3.1,15.74,0,2.49,2.56,5.19,4.69,3.89,3.52-2.13,10.42-4.18,16.3,1.34"/>
  <path class="cls-1" d="M578.22,424.56s-20.53-3.43-23.54.89c-3.01,4.32,5.75,3.21,5.75,3.21,2.06,6.84,29.9,2.19,17.79-4.09Z"/>
  <path class="cls-1" d="M559.13,398.4s22.61,9.5,22.74,13.66c.13,4.16-6.34,2.56-16.24,3.34-9.9.78-8.43,4.81-8.43,4.81,0,0-8.18,2.91-7.96-4.03s9.22-10.16,6.94-13.58c-2.28-3.42-1.85-4.22-4.61-6.5-2.77-2.28,7.56,2.29,7.56,2.29Z"/>
  <line class="cls-1" x1="459.49" y1="315.12" x2="416.95" y2="315.12"/>
  <line class="cls-1" x1="380.1" y1="315.12" x2="365.48" y2="315.12"/>
  <line class="cls-1" x1="382.2" y1="330.32" x2="365.62" y2="330.32"/>
  <line class="cls-1" x1="388.83" y1="330.32" x2="385.54" y2="330.32"/>
  <line class="cls-1" x1="400.08" y1="330.32" x2="396.92" y2="330.32"/>
  <line class="cls-1" x1="489.96" y1="330.32" x2="407.63" y2="330.32"/>
  <path class="cls-1" d="M466.98,347.35s9.72,4.33,7.85,13.79c0,0-4.93,2.08-7.85-3.24-2.92-5.32,0-10.55,0-10.55Z"/>
  <path class="cls-1" d="M598.78,354.48s5.74,28.35.65,39.42"/>
  <path class="cls-1" d="M603.56,356.18s7.16,20.86,1.32,38.19c0,0,8.36-4.77,16.7-4.51,8.34.26,9.09,1.18,9.09,1.18,0,0,4.15-7.85-6.58-12.69,0,0,7.02-20.93-20.07-22.17"/>
  <path class="cls-1" d="M606.33,402.13s-2.03,3.4-2.77,5.41c-.73,1.98-6.23-4-6.23-4,0,0,1.11-6.07,4.41-4.37,3.3,1.7,4.59,2.96,4.59,2.96Z"/>
  <path class="cls-1" d="M604.88,396.55c.55,2.63,7.14-.38,7.14-.38-3.2,6.75,10.72,11.82,10.72,11.82-7.91-2.68-12.75,3.19-12.75,3.19,0,0-4.38,7.58-3.2,11.38s-3.99-7.38-10.4-10.03c0,0,4.48-6.31-7.46-6.11"/>
  <path class="cls-1" d="M516.69,156.87s-4.94-8.31,1.93-27.58c.17-.48-.68-.67-.9-.22-2.23,4.56-11.82,20.08-9.52,43.72"/>
  <path class="cls-1" d="M540.87,168.41s-5.43.52-6.77.29"/>
  <path class="cls-1" d="M580.44,319.1s7.33,30.58,11.01,33.76c3.68,3.19-9.68,1.17-13.47-.66-3.79-1.83-4.84-2.75-4.84-2.75"/>
  <path class="cls-1" d="M506.17,176.65s-10.56,5.7-29.24,9.51"/>
  <path class="cls-1" d="M496.29,189.77s-9.45,1.98-14.76,2.29"/>
  <line class="cls-1" x1="535.57" y1="159.5" x2="527.58" y2="159.81"/>
  <path class="cls-1" d="M507.42,163.69s-35.48,4.58-48.82,16.67c0,0-2.37,1.66-6.9,9.1"/>
</svg>