<svg width="131" height="90" viewBox="0 0 131 90" fill="none" xmlns="http://www.w3.org/2000/svg">
<path d="M8.16001 29H2.20001C1.69334 29 1.32001 28.8933 1.08001 28.68C0.866676 28.44 0.76001 28.0666 0.76001 27.56V1.63995C0.76001 1.13329 0.866676 0.773285 1.08001 0.559951C1.32001 0.319951 1.69334 0.199951 2.20001 0.199951H8.64001C9.06668 0.199951 9.41334 0.293284 9.68001 0.47995C9.97334 0.666617 10.24 0.973284 10.48 1.39995L14.08 7.91995C14.2133 8.15995 14.32 8.33329 14.4 8.43995C14.5067 8.54662 14.64 8.59995 14.8 8.59995H15.16C15.32 8.59995 15.44 8.54662 15.52 8.43995C15.6267 8.33329 15.7467 8.15995 15.88 7.91995L19.44 1.39995C19.68 0.973284 19.9333 0.666617 20.2 0.47995C20.4933 0.293284 20.8533 0.199951 21.28 0.199951H27.76C28.2667 0.199951 28.6267 0.319951 28.84 0.559951C29.08 0.773285 29.2 1.13329 29.2 1.63995V27.56C29.2 28.0666 29.08 28.44 28.84 28.68C28.6267 28.8933 28.2667 29 27.76 29H21.6C21.0933 29 20.72 28.8933 20.48 28.68C20.2667 28.44 20.16 28.0666 20.16 27.56V13.48L17.8 17.84C17.56 18.2933 17.2667 18.6266 16.92 18.84C16.6 19.0266 16.1867 19.12 15.68 19.12H14.08C13.5733 19.12 13.1467 19.0266 12.8 18.84C12.48 18.6266 12.2 18.2933 11.96 17.84L9.60001 13.48V27.56C9.60001 28.0666 9.48001 28.44 9.24001 28.68C9.02668 28.8933 8.66668 29 8.16001 29Z" fill="black"/>
<path d="M58.0253 21.44C58.0253 22.6666 57.8387 23.7866 57.4653 24.8C57.1187 25.7866 56.4787 26.64 55.5453 27.36C54.6387 28.0533 53.3853 28.6 51.7853 29C50.1853 29.4 48.1453 29.6 45.6653 29.6C43.1853 29.6 41.1453 29.4 39.5453 29C37.9453 28.6 36.6787 28.0533 35.7453 27.36C34.8387 26.64 34.1987 25.7866 33.8253 24.8C33.4787 23.7866 33.3053 22.6666 33.3053 21.44V1.63995C33.3053 1.13329 33.412 0.773285 33.6253 0.559951C33.8653 0.319951 34.2387 0.199951 34.7453 0.199951H41.0253C41.532 0.199951 41.892 0.319951 42.1053 0.559951C42.3453 0.773285 42.4653 1.13329 42.4653 1.63995V19.88C42.4653 20.4133 42.6653 20.8666 43.0653 21.24C43.4653 21.5866 44.3587 21.76 45.7453 21.76C47.1587 21.76 48.0653 21.5866 48.4653 21.24C48.8653 20.8666 49.0653 20.4133 49.0653 19.88V1.63995C49.0653 1.13329 49.172 0.773285 49.3853 0.559951C49.6253 0.319951 49.9987 0.199951 50.5053 0.199951H56.5853C57.092 0.199951 57.452 0.319951 57.6653 0.559951C57.9053 0.773285 58.0253 1.13329 58.0253 1.63995V21.44Z" fill="black"/>
<path d="M75.5091 29H62.8691C62.3624 29 61.9891 28.8933 61.7491 28.68C61.5357 28.44 61.4291 28.0666 61.4291 27.56V22.88C61.4291 22.3733 61.5357 22.0133 61.7491 21.8C61.9891 21.56 62.3624 21.44 62.8691 21.44H73.6291C73.9757 21.44 74.2291 21.3333 74.3891 21.12C74.5757 20.88 74.6691 20.6 74.6691 20.28C74.6691 19.8266 74.5757 19.4933 74.3891 19.28C74.2291 19.0666 73.9757 18.9466 73.6291 18.92L67.6291 18.08C65.7624 17.8133 64.2557 17.2 63.1091 16.24C61.9891 15.28 61.4291 13.68 61.4291 11.44V7.23995C61.4291 4.97328 62.1624 3.23995 63.6291 2.03995C65.0957 0.813285 67.1224 0.199951 69.7091 0.199951H80.9091C81.4157 0.199951 81.7757 0.319951 81.9891 0.559951C82.2291 0.773285 82.3491 1.13329 82.3491 1.63995V6.39995C82.3491 6.90662 82.2291 7.27995 81.9891 7.51995C81.7757 7.73328 81.4157 7.83995 80.9091 7.83995H71.5891C71.2424 7.83995 70.9757 7.95995 70.7891 8.19995C70.6024 8.41328 70.5091 8.69328 70.5091 9.03995C70.5091 9.38662 70.6024 9.67995 70.7891 9.91995C70.9757 10.16 71.2424 10.2933 71.5891 10.32L77.5491 11.12C79.4157 11.3866 80.9224 12 82.0691 12.96C83.2157 13.92 83.7891 15.52 83.7891 17.76V21.96C83.7891 24.2266 83.0424 25.9733 81.5491 27.2C80.0824 28.4 78.0691 29 75.5091 29Z" fill="black"/>
<path d="M87.7647 29C87.258 29 86.8847 28.8933 86.6447 28.68C86.4314 28.44 86.3247 28.0666 86.3247 27.56V22.8C86.3247 22.2933 86.4314 21.9333 86.6447 21.72C86.8847 21.48 87.258 21.36 87.7647 21.36H91.7247V7.91995H87.7647C87.258 7.91995 86.8847 7.81329 86.6447 7.59995C86.4314 7.35995 86.3247 6.98662 86.3247 6.47995V1.63995C86.3247 1.13329 86.4314 0.773285 86.6447 0.559951C86.8847 0.319951 87.258 0.199951 87.7647 0.199951H104.805C105.311 0.199951 105.671 0.319951 105.885 0.559951C106.125 0.773285 106.245 1.13329 106.245 1.63995V6.47995C106.245 6.98662 106.125 7.35995 105.885 7.59995C105.671 7.81329 105.311 7.91995 104.805 7.91995H100.925V21.36H104.805C105.311 21.36 105.671 21.48 105.885 21.72C106.125 21.9333 106.245 22.2933 106.245 22.8V27.56C106.245 28.0666 106.125 28.44 105.885 28.68C105.671 28.8933 105.311 29 104.805 29H87.7647Z" fill="black"/>
<path d="M129.143 29H119.383C116.05 29 113.57 28.3333 111.943 27C110.343 25.6666 109.543 23.6133 109.543 20.84V8.39995C109.543 5.62662 110.343 3.57328 111.943 2.23995C113.57 0.879951 116.05 0.199951 119.383 0.199951H129.143C129.65 0.199951 130.01 0.319951 130.223 0.559951C130.463 0.773285 130.583 1.13329 130.583 1.63995V6.47995C130.583 6.98662 130.463 7.35995 130.223 7.59995C130.01 7.81329 129.65 7.91995 129.143 7.91995H121.103C120.277 7.91995 119.663 8.09329 119.263 8.43995C118.863 8.75995 118.663 9.25328 118.663 9.91995V19.44C118.663 20.1066 118.863 20.6 119.263 20.92C119.663 21.2133 120.277 21.36 121.103 21.36H129.143C129.65 21.36 130.01 21.48 130.223 21.72C130.463 21.9333 130.583 22.2933 130.583 22.8V27.56C130.583 28.0666 130.463 28.44 130.223 28.68C130.01 28.8933 129.65 29 129.143 29Z" fill="black"/>
<path d="M8.16001 59H2.20001C1.69334 59 1.32001 58.8933 1.08001 58.68C0.866676 58.44 0.76001 58.0666 0.76001 57.56V31.64C0.76001 31.1333 0.866676 30.7733 1.08001 30.56C1.32001 30.32 1.69334 30.2 2.20001 30.2H8.64001C9.06668 30.2 9.41334 30.2933 9.68001 30.4799C9.97334 30.6666 10.24 30.9733 10.48 31.4L14.08 37.92C14.2133 38.16 14.32 38.3333 14.4 38.44C14.5067 38.5466 14.64 38.5999 14.8 38.5999H15.16C15.32 38.5999 15.44 38.5466 15.52 38.44C15.6267 38.3333 15.7467 38.16 15.88 37.92L19.44 31.4C19.68 30.9733 19.9333 30.6666 20.2 30.4799C20.4933 30.2933 20.8533 30.2 21.28 30.2H27.76C28.2667 30.2 28.6267 30.32 28.84 30.56C29.08 30.7733 29.2 31.1333 29.2 31.64V57.56C29.2 58.0666 29.08 58.44 28.84 58.68C28.6267 58.8933 28.2667 59 27.76 59H21.6C21.0933 59 20.72 58.8933 20.48 58.68C20.2667 58.44 20.16 58.0666 20.16 57.56V43.4799L17.8 47.84C17.56 48.2933 17.2667 48.6266 16.92 48.84C16.6 49.0266 16.1867 49.12 15.68 49.12H14.08C13.5733 49.12 13.1467 49.0266 12.8 48.84C12.48 48.6266 12.2 48.2933 11.96 47.84L9.60001 43.4799V57.56C9.60001 58.0666 9.48001 58.44 9.24001 58.68C9.02668 58.8933 8.66668 59 8.16001 59Z" fill="black"/>
<path d="M58.0253 51.44C58.0253 52.6666 57.8387 53.7866 57.4653 54.8C57.1187 55.7866 56.4787 56.64 55.5453 57.36C54.6387 58.0533 53.3853 58.6 51.7853 59C50.1853 59.4 48.1453 59.6 45.6653 59.6C43.1853 59.6 41.1453 59.4 39.5453 59C37.9453 58.6 36.6787 58.0533 35.7453 57.36C34.8387 56.64 34.1987 55.7866 33.8253 54.8C33.4787 53.7866 33.3053 52.6666 33.3053 51.44V31.64C33.3053 31.1333 33.412 30.7733 33.6253 30.56C33.8653 30.32 34.2387 30.2 34.7453 30.2H41.0253C41.532 30.2 41.892 30.32 42.1053 30.56C42.3453 30.7733 42.4653 31.1333 42.4653 31.64V49.88C42.4653 50.4133 42.6653 50.8666 43.0653 51.24C43.4653 51.5866 44.3587 51.76 45.7453 51.76C47.1587 51.76 48.0653 51.5866 48.4653 51.24C48.8653 50.8666 49.0653 50.4133 49.0653 49.88V31.64C49.0653 31.1333 49.172 30.7733 49.3853 30.56C49.6253 30.32 49.9987 30.2 50.5053 30.2H56.5853C57.092 30.2 57.452 30.32 57.6653 30.56C57.9053 30.7733 58.0253 31.1333 58.0253 31.64V51.44Z" fill="black"/>
<path d="M75.5091 59H62.8691C62.3624 59 61.9891 58.8933 61.7491 58.68C61.5357 58.44 61.4291 58.0666 61.4291 57.56V52.88C61.4291 52.3733 61.5357 52.0133 61.7491 51.8C61.9891 51.56 62.3624 51.44 62.8691 51.44H73.6291C73.9757 51.44 74.2291 51.3333 74.3891 51.12C74.5757 50.88 74.6691 50.6 74.6691 50.28C74.6691 49.8266 74.5757 49.4933 74.3891 49.28C74.2291 49.0666 73.9757 48.9466 73.6291 48.92L67.6291 48.08C65.7624 47.8133 64.2557 47.2 63.1091 46.24C61.9891 45.28 61.4291 43.68 61.4291 41.44V37.24C61.4291 34.9733 62.1624 33.24 63.6291 32.04C65.0957 30.8133 67.1224 30.2 69.7091 30.2H80.9091C81.4157 30.2 81.7757 30.32 81.9891 30.56C82.2291 30.7733 82.3491 31.1333 82.3491 31.64V36.4C82.3491 36.9066 82.2291 37.28 81.9891 37.52C81.7757 37.7333 81.4157 37.84 80.9091 37.84H71.5891C71.2424 37.84 70.9757 37.96 70.7891 38.2C70.6024 38.4133 70.5091 38.6933 70.5091 39.04C70.5091 39.3866 70.6024 39.68 70.7891 39.92C70.9757 40.16 71.2424 40.2933 71.5891 40.32L77.5491 41.1199C79.4157 41.3866 80.9224 42 82.0691 42.96C83.2157 43.92 83.7891 45.52 83.7891 47.76V51.96C83.7891 54.2266 83.0424 55.9733 81.5491 57.2C80.0824 58.4 78.0691 59 75.5091 59Z" fill="black"/>
<path d="M87.7647 59C87.258 59 86.8847 58.8933 86.6447 58.68C86.4314 58.44 86.3247 58.0666 86.3247 57.56V52.8C86.3247 52.2933 86.4314 51.9333 86.6447 51.72C86.8847 51.48 87.258 51.36 87.7647 51.36H91.7247V37.92H87.7647C87.258 37.92 86.8847 37.8133 86.6447 37.6C86.4314 37.36 86.3247 36.9866 86.3247 36.4799V31.64C86.3247 31.1333 86.4314 30.7733 86.6447 30.56C86.8847 30.32 87.258 30.2 87.7647 30.2H104.805C105.311 30.2 105.671 30.32 105.885 30.56C106.125 30.7733 106.245 31.1333 106.245 31.64V36.4799C106.245 36.9866 106.125 37.36 105.885 37.6C105.671 37.8133 105.311 37.92 104.805 37.92H100.925V51.36H104.805C105.311 51.36 105.671 51.48 105.885 51.72C106.125 51.9333 106.245 52.2933 106.245 52.8V57.56C106.245 58.0666 106.125 58.44 105.885 58.68C105.671 58.8933 105.311 59 104.805 59H87.7647Z" fill="black"/>
<path d="M129.143 59H119.383C116.05 59 113.57 58.3333 111.943 57C110.343 55.6666 109.543 53.6133 109.543 50.84V38.4C109.543 35.6266 110.343 33.5733 111.943 32.24C113.57 30.88 116.05 30.2 119.383 30.2H129.143C129.65 30.2 130.01 30.32 130.223 30.56C130.463 30.7733 130.583 31.1333 130.583 31.64V36.4799C130.583 36.9866 130.463 37.36 130.223 37.6C130.01 37.8133 129.65 37.92 129.143 37.92H121.103C120.277 37.92 119.663 38.0933 119.263 38.44C118.863 38.76 118.663 39.2533 118.663 39.92V49.44C118.663 50.1066 118.863 50.6 119.263 50.92C119.663 51.2133 120.277 51.36 121.103 51.36H129.143C129.65 51.36 130.01 51.48 130.223 51.72C130.463 51.9333 130.583 52.2933 130.583 52.8V57.56C130.583 58.0666 130.463 58.44 130.223 58.68C130.01 58.8933 129.65 59 129.143 59Z" fill="black"/>
<path d="M8.16001 89H2.20001C1.69334 89 1.32001 88.8933 1.08001 88.68C0.866676 88.44 0.76001 88.0666 0.76001 87.56V61.64C0.76001 61.1333 0.866676 60.7733 1.08001 60.56C1.32001 60.32 1.69334 60.2 2.20001 60.2H8.64001C9.06668 60.2 9.41334 60.2933 9.68001 60.4799C9.97334 60.6666 10.24 60.9733 10.48 61.3999L14.08 67.92C14.2133 68.16 14.32 68.3333 14.4 68.4399C14.5067 68.5466 14.64 68.6 14.8 68.6H15.16C15.32 68.6 15.44 68.5466 15.52 68.4399C15.6267 68.3333 15.7467 68.16 15.88 67.92L19.44 61.3999C19.68 60.9733 19.9333 60.6666 20.2 60.4799C20.4933 60.2933 20.8533 60.2 21.28 60.2H27.76C28.2667 60.2 28.6267 60.32 28.84 60.56C29.08 60.7733 29.2 61.1333 29.2 61.64V87.56C29.2 88.0666 29.08 88.44 28.84 88.68C28.6267 88.8933 28.2667 89 27.76 89H21.6C21.0933 89 20.72 88.8933 20.48 88.68C20.2667 88.44 20.16 88.0666 20.16 87.56V73.4799L17.8 77.84C17.56 78.2933 17.2667 78.6266 16.92 78.84C16.6 79.0266 16.1867 79.1199 15.68 79.1199H14.08C13.5733 79.1199 13.1467 79.0266 12.8 78.84C12.48 78.6266 12.2 78.2933 11.96 77.84L9.60001 73.4799V87.56C9.60001 88.0666 9.48001 88.44 9.24001 88.68C9.02668 88.8933 8.66668 89 8.16001 89Z" fill="black"/>
<path d="M58.0253 81.4399C58.0253 82.6666 57.8387 83.7866 57.4653 84.7999C57.1187 85.7866 56.4787 86.64 55.5453 87.36C54.6387 88.0533 53.3853 88.6 51.7853 89C50.1853 89.4 48.1453 89.6 45.6653 89.6C43.1853 89.6 41.1453 89.4 39.5453 89C37.9453 88.6 36.6787 88.0533 35.7453 87.36C34.8387 86.64 34.1987 85.7866 33.8253 84.7999C33.4787 83.7866 33.3053 82.6666 33.3053 81.4399V61.64C33.3053 61.1333 33.412 60.7733 33.6253 60.56C33.8653 60.32 34.2387 60.2 34.7453 60.2H41.0253C41.532 60.2 41.892 60.32 42.1053 60.56C42.3453 60.7733 42.4653 61.1333 42.4653 61.64V79.88C42.4653 80.4133 42.6653 80.8666 43.0653 81.24C43.4653 81.5866 44.3587 81.7599 45.7453 81.7599C47.1587 81.7599 48.0653 81.5866 48.4653 81.24C48.8653 80.8666 49.0653 80.4133 49.0653 79.88V61.64C49.0653 61.1333 49.172 60.7733 49.3853 60.56C49.6253 60.32 49.9987 60.2 50.5053 60.2H56.5853C57.092 60.2 57.452 60.32 57.6653 60.56C57.9053 60.7733 58.0253 61.1333 58.0253 61.64V81.4399Z" fill="black"/>
<path d="M75.5091 89H62.8691C62.3624 89 61.9891 88.8933 61.7491 88.68C61.5357 88.44 61.4291 88.0666 61.4291 87.56V82.88C61.4291 82.3733 61.5357 82.0133 61.7491 81.7999C61.9891 81.5599 62.3624 81.4399 62.8691 81.4399H73.6291C73.9757 81.4399 74.2291 81.3333 74.3891 81.1199C74.5757 80.8799 74.6691 80.6 74.6691 80.28C74.6691 79.8266 74.5757 79.4933 74.3891 79.28C74.2291 79.0666 73.9757 78.9466 73.6291 78.92L67.6291 78.08C65.7624 77.8133 64.2557 77.2 63.1091 76.24C61.9891 75.28 61.4291 73.6799 61.4291 71.4399V67.24C61.4291 64.9733 62.1624 63.24 63.6291 62.04C65.0957 60.8133 67.1224 60.2 69.7091 60.2H80.9091C81.4157 60.2 81.7757 60.32 81.9891 60.56C82.2291 60.7733 82.3491 61.1333 82.3491 61.64V66.4C82.3491 66.9066 82.2291 67.28 81.9891 67.52C81.7757 67.7333 81.4157 67.84 80.9091 67.84H71.5891C71.2424 67.84 70.9757 67.96 70.7891 68.2C70.6024 68.4133 70.5091 68.6933 70.5091 69.04C70.5091 69.3866 70.6024 69.68 70.7891 69.92C70.9757 70.16 71.2424 70.2933 71.5891 70.32L77.5491 71.1199C79.4157 71.3866 80.9224 72 82.0691 72.96C83.2157 73.92 83.7891 75.5199 83.7891 77.7599V81.96C83.7891 84.2266 83.0424 85.9733 81.5491 87.2C80.0824 88.4 78.0691 89 75.5091 89Z" fill="black"/>
<path d="M87.7647 89C87.258 89 86.8847 88.8933 86.6447 88.68C86.4314 88.44 86.3247 88.0666 86.3247 87.56V82.7999C86.3247 82.2933 86.4314 81.9333 86.6447 81.72C86.8847 81.48 87.258 81.36 87.7647 81.36H91.7247V67.92H87.7647C87.258 67.92 86.8847 67.8133 86.6447 67.6C86.4314 67.36 86.3247 66.9866 86.3247 66.4799V61.64C86.3247 61.1333 86.4314 60.7733 86.6447 60.56C86.8847 60.32 87.258 60.2 87.7647 60.2H104.805C105.311 60.2 105.671 60.32 105.885 60.56C106.125 60.7733 106.245 61.1333 106.245 61.64V66.4799C106.245 66.9866 106.125 67.36 105.885 67.6C105.671 67.8133 105.311 67.92 104.805 67.92H100.925V81.36H104.805C105.311 81.36 105.671 81.48 105.885 81.72C106.125 81.9333 106.245 82.2933 106.245 82.7999V87.56C106.245 88.0666 106.125 88.44 105.885 88.68C105.671 88.8933 105.311 89 104.805 89H87.7647Z" fill="black"/>
<path d="M129.143 89H119.383C116.05 89 113.57 88.3333 111.943 87C110.343 85.6666 109.543 83.6133 109.543 80.84V68.3999C109.543 65.6266 110.343 63.5733 111.943 62.24C113.57 60.88 116.05 60.2 119.383 60.2H129.143C129.65 60.2 130.01 60.32 130.223 60.56C130.463 60.7733 130.583 61.1333 130.583 61.64V66.4799C130.583 66.9866 130.463 67.36 130.223 67.6C130.01 67.8133 129.65 67.92 129.143 67.92H121.103C120.277 67.92 119.663 68.0933 119.263 68.4399C118.863 68.7599 118.663 69.2533 118.663 69.92V79.4399C118.663 80.1066 118.863 80.6 119.263 80.92C119.663 81.2133 120.277 81.36 121.103 81.36H129.143C129.65 81.36 130.01 81.48 130.223 81.72C130.463 81.9333 130.583 82.2933 130.583 82.7999V87.56C130.583 88.0666 130.463 88.44 130.223 88.68C130.01 88.8933 129.65 89 129.143 89Z" fill="black"/>
</svg>
